<?xml version="1.0" encoding="utf-8"?>
<!-- Generator: Adobe Illustrator 19.2.1, SVG Export Plug-In . SVG Version: 6.00 Build 0)  -->
<svg version="1.1" id="Layer_1" xmlns="http://www.w3.org/2000/svg" xmlns:xlink="http://www.w3.org/1999/xlink" x="0px" y="0px"
	 viewBox="0 0 600 600" style="enable-background:new 0 0 600 600;" xml:space="preserve">
<style type="text/css">
	.st0{fill:none;stroke:#000000;stroke-width:11.6663;stroke-miterlimit:10;}
	.st1{fill:none;stroke:#000000;stroke-width:11.6663;stroke-linecap:square;stroke-linejoin:round;stroke-miterlimit:10;}
	.st2{fill:none;stroke:#000000;stroke-width:11.6663;stroke-linejoin:round;stroke-miterlimit:10;}
	.st3{fill:none;stroke:#000000;stroke-width:7.7775;stroke-miterlimit:10;}
	.st4{fill:none;stroke:#000000;stroke-width:11.6663;stroke-linecap:round;stroke-miterlimit:10;}
	.st5{fill:none;stroke:#FFFFFF;stroke-width:11.25;stroke-linecap:round;stroke-linejoin:round;stroke-miterlimit:10;}
	.st6{fill:#FFFFFF;}
</style>
<g>
	<path d="M269.8,256c-17.3,7.4-31.5,20.5-40.2,37.1c-5.9,11.3-9.3,24.1-9.3,37.7c0,21.6,0,0,0,21.6c0,20.4,0,0,0,20.4
		c0,11.4,0.8,21,2.4,29.2l22.8,37c14.6,8.5,34.3,8.5,56.1,8.5c21.4,0,40.8,0,55.2-8.1l23.3-37.4c1.6-8.2,2.4-17.8,2.4-29.2
		c0-20.4,0,0,0-20.4c0-21.6,0,0,0-21.6c0-33.7-20.3-62.6-49.5-74.9L269.8,256z"/>
	<circle class="st0" cx="338.8" cy="173.6" r="15.2"/>
	<path class="st1" d="M328.1,211.8c3.4-2.9,6.3-6.3,8.7-10.1c-9.1-10.4-14.6-24-14.6-38.9c0-6.2,1-12.1,2.7-17.7
		c-6.8-4.7-15.1-7.5-24-7.5c-8.9,0-17.2,2.8-24,7.5c1.8,5.6,2.7,11.6,2.7,17.7c0,14.9-5.5,28.5-14.6,38.9c2.3,3.8,5.3,7.2,8.7,10.1"
		/>
	<path class="st2" d="M276.3,214.4c-0.7-0.6-2.1-2-2.8-2.6c-5.1,5.4-8.6,12.3-9.7,20v7.8c-20.2,8.6-36.9,24-47,43.4
		c-6.9,13.2-10.8,28.2-10.8,44.1c0,25.3,0,0,0,25.3c0,23.9,0,0,0,23.9c0,13.3,1,24.6,2.8,34.1l26.7,43.2c17.1,9.9,40.1,9.9,65.6,9.9
		c25,0,47.7,0,64.6-9.5l27.3-43.7c1.8-9.6,2.8-20.8,2.8-34.1c0-23.9,0,0,0-23.9c0-25.3,0,0,0-25.3c0-39.4-23.8-73.2-57.9-87.6v-7.8
		c-1.2-7.6-4.7-14.5-9.7-19.9"/>
	<path class="st3" d="M313.6,253.7"/>
	<path d="M320.5,168.7H281c-4.9,0-5-4-5-8.9v-11c0-4.9,4-8.9,8.9-8.9h31.7c4.9,0,8.9,4,8.9,8.9v11
		C325.6,164.7,325.4,168.7,320.5,168.7z"/>
	<path class="st4" d="M236,257.7c0,0,22.7-18.5,39-20.3"/>
	<path class="st4" d="M365.6,257.7c0,0-22.7-18.5-39-20.3"/>
	<line class="st5" x1="221.4" y1="386" x2="380.2" y2="386"/>
	<line class="st5" x1="221.4" y1="312.7" x2="380.2" y2="312.7"/>
	<g>
		<path class="st6" d="M303.2,417.5c-30.5,0-47.1-14.4-54.3-22.9c-1.2-1.5-1.8-3.4-1.6-5.3c0.2-1.9,1.2-3.6,2.7-4.8l20.6-15.4
			c1.2-0.9,2.7-1.4,4.2-1.4c2,0,3.9,0.9,5.3,2.4c6.4,7.3,12.9,10.5,21.7,10.5c11.7,0,11.7-4.1,11.7-5.7c0-1.9-0.7-3.7-9.5-6.7
			l-14.9-5c-22.9-7.6-34.5-21.9-34.5-42.4c0-29,24.7-42.3,47.7-42.3c24,0,37.6,8.9,44.8,16.3c2.6,2.7,2.5,7-0.1,9.7l-16.7,16.8
			c-1.3,1.3-3.1,2.1-4.9,2.1c-1.7,0-3.4-0.7-4.7-1.8c-4.7-4.4-9.7-6.3-16.5-6.3c-2.4,0-7.9,0.4-7.9,4.4c0,1.6,0,3.2,6,5.2l16.8,5.6
			c25.6,8.5,37,21.6,37,42.6C355.7,386.4,350.6,417.5,303.2,417.5z"/>
		<path d="M302.1,282.8c20.8,0,33.9,6.9,41.6,15c1,1,0.9,2.6-0.1,3.6L327,318.1c-0.5,0.5-1.2,0.8-1.8,0.8c-0.6,0-1.2-0.2-1.7-0.7
			c-4.8-4.5-10.5-7.4-19.5-7.4c-8.2,0-12.3,3.7-12.3,8.8c0,4.9,2.8,7.3,9,9.3l16.8,5.6c25.4,8.4,34,20.5,34,38.5
			c0,23.3-14.6,40.1-48.2,40.1c-26.6,0-42.6-11.4-50.9-21.4c-1-1.1-0.8-2.8,0.4-3.7l20.6-15.4c0.5-0.3,1-0.5,1.5-0.5
			c0.7,0,1.4,0.3,2,0.9c5.9,6.8,13.3,12,25,12c10.1,0,16.1-3,16.1-10.1c0-5.4-4.1-8-12.5-10.8l-14.9-5
			c-18.5-6.2-31.5-17.4-31.5-38.3C258.8,295.7,279.5,282.8,302.1,282.8 M302.1,274.1c-13.6,0-26.2,4.1-35.6,11.5
			c-10.8,8.6-16.5,20.7-16.5,35.2c0,12.1,3.7,22.4,11.1,30.5c6.3,7,14.9,12.2,26.4,16l14.9,5c4.1,1.4,5.8,2.3,6.5,2.8
			c-0.6,0.3-2.6,1.1-7.2,1.1c-7.5,0-12.8-2.6-18.4-9c-2.2-2.5-5.3-3.9-8.6-3.9c-2.5,0-4.8,0.8-6.8,2.3L247.4,381
			c-2.5,1.9-4.1,4.7-4.5,7.8c-0.4,3.1,0.6,6.2,2.6,8.6c7.7,9.2,25.3,24.5,57.6,24.5c18.3,0,32.6-4.6,42.6-13.6
			c9.4-8.5,14.3-20.7,14.3-35.3c0-11.5-3.1-20.8-9.5-28.4c-5.8-6.9-14.5-12.5-26.5-16.9c0.3,0,0.7,0,1,0c3,0,5.9-1.2,8-3.4
			l16.7-16.8c4.3-4.3,4.4-11.4,0.1-15.8C342.2,283.7,327.6,274.1,302.1,274.1L302.1,274.1z M301.2,319.8c0.6-0.1,1.5-0.3,2.7-0.3
			c6.7,0,10.2,2,13.5,5.1c0.5,0.4,1,0.8,1.5,1.2l-15.7-5.2C302.4,320.3,301.7,320,301.2,319.8L301.2,319.8z"/>
	</g>
</g>
</svg>
